<svg id="visual" viewBox="0 0 1540 950" width="1540" height="950" xmlns="http://www.w3.org/2000/svg" xmlns:xlink="http://www.w3.org/1999/xlink" version="1.1"><rect x="0" y="0" width="1540" height="950" fill="#001220"></rect><defs><linearGradient id="grad1_0" x1="38.3%" y1="0%" x2="100%" y2="100%"><stop offset="17.578947368421055%" stop-color="#fbae3c" stop-opacity="1"></stop><stop offset="82.42105263157895%" stop-color="#fbae3c" stop-opacity="1"></stop></linearGradient></defs><defs><linearGradient id="grad1_1" x1="38.3%" y1="0%" x2="100%" y2="100%"><stop offset="17.578947368421055%" stop-color="#fbae3c" stop-opacity="1"></stop><stop offset="82.42105263157895%" stop-color="#001220" stop-opacity="1"></stop></linearGradient></defs><defs><linearGradient id="grad2_0" x1="0%" y1="0%" x2="61.7%" y2="100%"><stop offset="17.578947368421055%" stop-color="#fbae3c" stop-opacity="1"></stop><stop offset="82.42105263157895%" stop-color="#fbae3c" stop-opacity="1"></stop></linearGradient></defs><defs><linearGradient id="grad2_1" x1="0%" y1="0%" x2="61.7%" y2="100%"><stop offset="17.578947368421055%" stop-color="#001220" stop-opacity="1"></stop><stop offset="82.42105263157895%" stop-color="#fbae3c" stop-opacity="1"></stop></linearGradient></defs><g transform="translate(1540, 0)"><path d="M0 633.3C-29.8 540.1 -59.7 446.8 -120.6 450.1C-181.5 453.4 -273.6 553.3 -316.7 548.5C-359.7 543.6 -353.9 433.9 -368.4 368.4C-382.9 302.9 -417.8 281.5 -427.8 247C-437.8 212.5 -422.9 164.7 -453 121.4C-483.1 78 -558.2 39 -633.3 0L0 0Z" fill="#96446e"></path><path d="M0 316.7C-14.9 270 -29.8 223.4 -60.3 225.1C-90.8 226.7 -136.8 276.7 -158.3 274.2C-179.9 271.8 -176.9 217 -184.2 184.2C-191.5 151.4 -208.9 140.8 -213.9 123.5C-218.9 106.2 -211.5 82.4 -226.5 60.7C-241.6 39 -279.1 19.5 -316.7 0L0 0Z" fill="#fbae3c"></path></g><g transform="translate(0, 950)"><path d="M0 -633.3C67.4 -650.3 134.8 -667.3 163.9 -611.7C193 -556.2 183.7 -428.1 230.5 -399.2C277.3 -370.4 380.1 -440.8 432 -432C483.9 -423.3 484.9 -335.5 465.9 -269C447 -202.5 408.2 -157.2 432.7 -116C457.3 -74.7 545.3 -37.3 633.3 0L0 0Z" fill="#96446e"></path><path d="M0 -316.7C33.7 -325.1 67.4 -333.6 82 -305.9C96.5 -278.1 91.9 -214 115.2 -199.6C138.6 -185.2 190.1 -220.4 216 -216C242 -211.7 242.4 -167.8 233 -134.5C223.5 -101.2 204.1 -78.6 216.4 -58C228.7 -37.3 272.7 -18.7 316.7 0L0 0Z" fill="#fbae3c"></path></g></svg>